<svg width="34" height="38" viewBox="0 0 34 38" fill="none" xmlns="http://www.w3.org/2000/svg">
<g filter="url(#filter0_d_35_505)">
<path d="M29.4805 7.78809V22.2109L16.9902 29.4229L4.5 22.2109V7.78809L16.9902 0.576172L29.4805 7.78809Z" stroke="#9F6B08"/>
<path d="M16.6367 20.3536C16.8319 20.5488 17.1485 20.5488 17.3438 20.3536L20.5258 17.1716C20.721 16.9763 20.721 16.6597 20.5258 16.4645C20.3305 16.2692 20.0139 16.2692 19.8187 16.4645L16.9902 19.2929L14.1618 16.4645C13.9665 16.2692 13.65 16.2692 13.4547 16.4645C13.2594 16.6597 13.2594 16.9763 13.4547 17.1716L16.6367 20.3536ZM16.9902 10H16.4902V20H16.9902H17.4902V10H16.9902Z" fill="#9F6B08"/>
</g>
<defs>
<filter id="filter0_d_35_505" x="0" y="0" width="33.9805" height="38" filterUnits="userSpaceOnUse" color-interpolation-filters="sRGB">
<feFlood flood-opacity="0" result="BackgroundImageFix"/>
<feColorMatrix in="SourceAlpha" type="matrix" values="0 0 0 0 0 0 0 0 0 0 0 0 0 0 0 0 0 0 127 0" result="hardAlpha"/>
<feOffset dy="4"/>
<feGaussianBlur stdDeviation="2"/>
<feComposite in2="hardAlpha" operator="out"/>
<feColorMatrix type="matrix" values="0 0 0 0 0 0 0 0 0 0 0 0 0 0 0 0 0 0 0.25 0"/>
<feBlend mode="normal" in2="BackgroundImageFix" result="effect1_dropShadow_35_505"/>
<feBlend mode="normal" in="SourceGraphic" in2="effect1_dropShadow_35_505" result="shape"/>
</filter>
</defs>
</svg>
